<svg width="15" height="15" viewBox="0 0 15 15" fill="none" xmlns="http://www.w3.org/2000/svg">
<path d="M6.36015 9.29006C5.73686 9.29448 5.12352 9.13406 4.5822 8.82506C4.06084 8.52284 3.62719 8.08995 3.32414 7.56906C3.01629 7.02695 2.85629 6.41347 2.86015 5.79006C2.86039 5.17849 3.01917 4.57742 3.32097 4.0455C3.62277 3.51358 4.05734 3.06898 4.5822 2.75506C5.1239 2.44699 5.73699 2.28664 6.36015 2.29006C6.97475 2.28438 7.57944 2.44505 8.11015 2.75506C8.64836 3.05728 9.09298 3.50186 9.39519 4.04006C9.70553 4.57064 9.86619 5.17542 9.86015 5.79006C9.86418 6.41362 9.70383 7.02723 9.39519 7.56906C9.08049 8.09314 8.63569 8.52699 8.10393 8.82853C7.57217 9.13006 6.97146 9.28905 6.36015 9.29006ZM14.4811 12.2161L11.7461 9.48206C11.6858 9.42002 11.6135 9.37099 11.5335 9.33797C11.4535 9.30495 11.3677 9.28865 11.2812 9.29006H10.8442C11.5415 8.39686 11.9557 7.31547 12.0336 6.18495C12.1115 5.05443 11.8495 3.92645 11.2812 2.94606C10.7828 2.08313 10.0661 1.36648 9.20317 0.868063C8.34343 0.357554 7.35999 0.0929342 6.36015 0.103063C5.35147 0.095368 4.35941 0.359632 3.48821 0.868063C2.63756 1.37293 1.93144 2.08865 1.43816 2.94606C0.926834 3.80587 0.661846 4.78975 0.672165 5.79006C0.664129 6.79892 0.928777 7.79121 1.43816 8.66206C1.93725 9.50767 2.6426 10.213 3.48821 10.7121C4.35906 11.2214 5.3513 11.4861 6.36015 11.4781C7.63024 11.4933 8.8666 11.0694 9.86015 10.2781V10.7151C9.85841 10.8017 9.87442 10.8877 9.90727 10.9679C9.94013 11.048 9.98916 11.1206 10.0512 11.1811L12.7852 13.9151C12.909 14.0376 13.076 14.1063 13.2502 14.1063C13.4243 14.1063 13.5914 14.0376 13.7151 13.9151L14.4811 13.1501C14.6034 13.026 14.672 12.8588 14.672 12.6846C14.672 12.5103 14.6034 12.3431 14.4811 12.2191V12.2161Z" fill="#555555"/>
</svg>
