<svg width="162" height="106" viewBox="0 0 162 106" fill="none" xmlns="http://www.w3.org/2000/svg">
<rect y="62" width="162" height="44" fill="#C4C4C4"/>
<ellipse cx="80.5" cy="52" rx="52.5" ry="52" fill="#C4C4C4"/>
<path d="M57.8193 57V44.1504H58.7158V56.1562H64.8418V57H57.8193ZM77.8672 50.5576C77.8672 52.5967 77.3574 54.2109 76.3379 55.4004C75.3184 56.584 73.9121 57.1758 72.1191 57.1758C70.332 57.1758 68.9287 56.584 67.9092 55.4004C66.8896 54.2109 66.3799 52.5908 66.3799 50.54C66.3799 48.4951 66.8926 46.8867 67.918 45.7148C68.9492 44.5371 70.3555 43.9482 72.1367 43.9482C73.9297 43.9482 75.333 44.54 76.3467 45.7236C77.3604 46.9014 77.8672 48.5127 77.8672 50.5576ZM67.3555 50.5576C67.3555 52.3975 67.7656 53.8213 68.5859 54.8291C69.4062 55.8311 70.584 56.332 72.1191 56.332C73.666 56.332 74.8467 55.834 75.6611 54.8379C76.4814 53.8418 76.8916 52.415 76.8916 50.5576C76.8916 48.7061 76.4814 47.2881 75.6611 46.3037C74.8467 45.3135 73.6719 44.8184 72.1367 44.8184C70.6074 44.8184 69.4268 45.3164 68.5947 46.3125C67.7686 47.3086 67.3555 48.7236 67.3555 50.5576ZM85.8828 50.5225H90.6201V56.3848C89.3779 56.9121 87.9805 57.1758 86.4277 57.1758C84.4004 57.1758 82.8447 56.6045 81.7607 55.4619C80.6826 54.3135 80.1436 52.6904 80.1436 50.5928C80.1436 49.2861 80.4102 48.1289 80.9434 47.1211C81.4824 46.1074 82.25 45.3252 83.2461 44.7744C84.248 44.2236 85.3965 43.9482 86.6914 43.9482C88.0918 43.9482 89.3486 44.2061 90.4619 44.7217L90.1016 45.5303C88.9883 45.0146 87.834 44.7568 86.6387 44.7568C84.9453 44.7568 83.6006 45.2812 82.6045 46.3301C81.6143 47.373 81.1191 48.7822 81.1191 50.5576C81.1191 52.4912 81.5908 53.9473 82.5342 54.9258C83.4775 55.8984 84.8633 56.3848 86.6914 56.3848C87.875 56.3848 88.8799 56.2178 89.7061 55.8838V51.3662H85.8828V50.5225ZM104.656 50.5576C104.656 52.5967 104.146 54.2109 103.127 55.4004C102.107 56.584 100.701 57.1758 98.9082 57.1758C97.1211 57.1758 95.7178 56.584 94.6982 55.4004C93.6787 54.2109 93.1689 52.5908 93.1689 50.54C93.1689 48.4951 93.6816 46.8867 94.707 45.7148C95.7383 44.5371 97.1445 43.9482 98.9258 43.9482C100.719 43.9482 102.122 44.54 103.136 45.7236C104.149 46.9014 104.656 48.5127 104.656 50.5576ZM94.1445 50.5576C94.1445 52.3975 94.5547 53.8213 95.375 54.8291C96.1953 55.8311 97.373 56.332 98.9082 56.332C100.455 56.332 101.636 55.834 102.45 54.8379C103.271 53.8418 103.681 52.415 103.681 50.5576C103.681 48.7061 103.271 47.2881 102.45 46.3037C101.636 45.3135 100.461 44.8184 98.9258 44.8184C97.3965 44.8184 96.2158 45.3164 95.3838 46.3125C94.5576 47.3086 94.1445 48.7236 94.1445 50.5576Z" fill="black"/>
</svg>
